<svg width="102" height="102" viewBox="0 0 102 102" fill="none" xmlns="http://www.w3.org/2000/svg">
<circle cx="51" cy="51" r="51" fill="white"/>
<g clip-path="url(#clip0_24_41)">
<path d="M67.557 43.5011C67.557 45.9294 67.6425 48.3432 67.5285 50.7716C67.4145 53.5344 68.2412 55.9045 69.9516 57.9983C70.1511 58.2455 70.3366 58.4927 70.5075 58.7545C71.1205 59.6997 71.0064 60.3539 70.1654 61.081C68.3693 62.6224 66.5876 64.1782 64.7917 65.7196C63.7226 66.6357 63.0526 66.6212 61.9694 65.7196C60.5155 64.5127 59.3751 63.0296 58.3631 61.4445C58.1208 61.0665 57.9925 61.081 57.6932 61.3718C55.897 63.1602 54.0013 64.818 51.5924 65.6469C47.8721 66.941 44.0947 67.1446 40.3601 65.7923C36.768 64.4836 34.6157 61.7789 33.8174 58.0129C32.9337 53.8105 33.3898 49.8118 35.927 46.2493C37.8513 43.5592 40.5168 41.9743 43.5814 41.0001C46.7459 40.0113 50.01 39.6332 53.2884 39.2988C54.215 39.197 55.1272 39.1098 56.0537 39.0226C56.2817 39.008 56.4813 38.9789 56.467 38.6735C56.4386 37.1322 56.5953 35.5617 56.239 34.0495C55.7829 32.1157 54.5427 30.9814 52.647 30.5596C51.2929 30.2543 49.953 30.3415 48.6416 30.7924C46.646 31.4903 45.4058 32.9008 44.907 34.9946C44.6362 36.1434 44.1087 36.5505 43.0112 36.4341C40.6735 36.1869 38.3358 35.9397 36.0125 35.6925C35.0574 35.5907 34.5586 34.8491 34.7581 33.9039C35.9697 27.8695 39.8469 24.4814 45.4345 22.9255C49.725 21.7332 54.0725 21.6605 58.3772 22.8965C61.8409 23.8852 64.7488 25.6302 66.3738 29.0908C67.3003 31.0539 67.5141 33.1768 67.5426 35.2998C67.5711 38.0192 67.5426 40.7674 67.557 43.5011ZM56.4671 48.0379C56.4671 47.3108 56.4388 46.5838 56.4815 45.8567C56.51 45.4059 56.3531 45.2459 55.9113 45.2896C54.8279 45.3913 53.7305 45.4059 52.6471 45.5512C50.7514 45.7984 48.8982 46.2783 47.3588 47.4997C45.1208 49.2883 44.6505 51.7312 45.021 54.4793C45.463 57.7073 48.2853 59.4959 51.3072 58.4199C53.3597 57.6928 54.614 56.1517 55.4836 54.2175C56.3958 52.2547 56.4671 50.1463 56.4671 48.0379Z" fill="#050606"/>
<path fill-rule="evenodd" clip-rule="evenodd" d="M51.1931 80.8567C40.3172 80.784 30.5531 77.9341 21.7297 71.9286C19.9337 70.7071 18.2232 69.3694 16.5983 67.9008C16.4558 67.7699 16.3132 67.6391 16.1992 67.479C16.0423 67.2609 15.9283 66.9993 16.1137 66.7375C16.299 66.4466 16.6126 66.4175 16.8834 66.5484C17.5105 66.8538 18.1093 67.1882 18.7221 67.5081C24.3384 70.5326 30.2538 72.7137 36.4543 74.0951C42.0704 75.3456 47.7435 75.9274 53.5022 75.7673C61.7269 75.5347 69.6522 73.8479 77.2782 70.7215C77.6488 70.5616 78.0337 70.4017 78.4185 70.3143C78.9603 70.2125 79.5019 70.2853 79.7442 70.8815C79.9723 71.434 79.6729 71.8702 79.2738 72.2192C78.9887 72.4663 78.6609 72.6699 78.333 72.8881C73.4154 76.1452 68.0273 78.2391 62.3257 79.5333C58.5625 80.406 54.7424 80.8275 51.1931 80.8567Z" fill="#F6A61F"/>
<path fill-rule="evenodd" clip-rule="evenodd" d="M78.6324 67.9008C76.9931 67.8862 75.3682 68.1043 73.7432 68.2788C73.4296 68.3078 73.0733 68.3951 72.9308 68.0462C72.7597 67.6535 73.0876 67.4209 73.3584 67.2319C75.3825 65.8651 77.6489 65.3271 80.0294 65.1962C81.6686 65.0945 83.2935 65.1672 84.89 65.6615C85.617 65.8796 85.9733 66.3158 85.9591 67.072C85.8736 71.1143 84.5479 74.6333 81.6829 77.4979C81.5831 77.5997 81.4691 77.6869 81.3551 77.7741C81.0986 77.9633 80.7849 78.1376 80.514 77.905C80.2575 77.6869 80.4 77.367 80.514 77.1053C81.3551 74.9678 82.2103 72.8449 82.6235 70.5619C82.6807 70.271 82.6949 69.9803 82.7092 69.7039C82.7234 68.7587 82.3955 68.3516 81.4833 68.119C80.5282 67.8571 79.5731 67.9008 78.6324 67.9008Z" fill="#F6A61F"/>
</g>
<defs>
<clipPath id="clip0_24_41">
<rect width="70" height="59" fill="white" transform="translate(16 22)"/>
</clipPath>
</defs>
</svg>
