<svg width="102" height="102" viewBox="0 0 102 102" fill="none" xmlns="http://www.w3.org/2000/svg">
<circle cx="51" cy="51" r="51" fill="white"/>
<path d="M61.6667 61.6667C67.5577 61.6667 72.3333 56.891 72.3333 51C72.3333 45.109 67.5577 40.3333 61.6667 40.3333C55.7756 40.3333 51 45.109 51 51C51 56.891 55.7756 61.6667 61.6667 61.6667Z" fill="#19BCFE"/>
<path fill-rule="evenodd" clip-rule="evenodd" d="M40.3334 83C46.2244 83 51 78.2244 51 72.3333C51 70.7252 51 67.1696 51 61.6667C46.2081 61.6667 42.6526 61.6667 40.3334 61.6667C34.4423 61.6667 29.6667 66.4423 29.6667 72.3333C29.6667 78.2244 34.4423 83 40.3334 83Z" fill="#09CF83"/>
<path fill-rule="evenodd" clip-rule="evenodd" d="M40.3334 61.6667H51V40.3333C45.8526 40.3333 42.297 40.3333 40.3334 40.3333C34.4423 40.3333 29.6667 45.109 29.6667 51C29.6667 56.891 34.4423 61.6667 40.3334 61.6667Z" fill="#A259FF"/>
<path fill-rule="evenodd" clip-rule="evenodd" d="M40.3334 40.3333H51V19C45.8526 19 42.297 19 40.3334 19C34.4423 19 29.6667 23.7756 29.6667 29.6667C29.6667 35.5577 34.4423 40.3333 40.3334 40.3333Z" fill="#F24E1E"/>
<path fill-rule="evenodd" clip-rule="evenodd" d="M61.6667 40.3333H51V19H61.6667C67.5577 19 72.3333 23.7756 72.3333 29.6667C72.3333 35.5577 67.5577 40.3333 61.6667 40.3333Z" fill="#FF7262"/>
</svg>
