<svg width="102" height="102" viewBox="0 0 102 102" fill="none" xmlns="http://www.w3.org/2000/svg">
<circle cx="51" cy="51" r="51" fill="white"/>
<g clip-path="url(#clip0_24_24)">
<path d="M80.4165 45.1245H78V45H51V57H67.9545C65.481 63.9855 58.8345 69 51 69C41.0595 69 33 60.9405 33 51C33 41.0595 41.0595 33 51 33C55.5885 33 59.763 34.731 62.9415 37.5585L71.427 29.073C66.069 24.0795 58.902 21 51 21C34.4325 21 21 34.4325 21 51C21 67.5675 34.4325 81 51 81C67.5675 81 81 67.5675 81 51C81 48.9885 80.793 47.025 80.4165 45.1245Z" fill="#FFC107"/>
<path d="M24.459 37.0365L34.3155 44.265C36.9825 37.662 43.4415 33 51 33C55.5885 33 59.763 34.731 62.9415 37.5585L71.427 29.073C66.069 24.0795 58.902 21 51 21C39.477 21 29.484 27.5055 24.459 37.0365Z" fill="#FF3D00"/>
<path d="M51 81C58.749 81 65.79 78.0345 71.1135 73.212L61.8285 65.355C58.8165 67.6365 55.0725 69 51 69C43.197 69 36.5715 64.0245 34.0755 57.081L24.2925 64.6185C29.2575 74.334 39.3405 81 51 81Z" fill="#4CAF50"/>
<path d="M80.4165 45.1245H78V45H51V57H67.9545C66.7665 60.3555 64.608 63.249 61.824 65.3565C61.8255 65.355 61.827 65.355 61.8285 65.3535L71.1135 73.2105C70.4565 73.8075 81 66 81 51C81 48.9885 80.793 47.025 80.4165 45.1245Z" fill="#1976D2"/>
</g>
<defs>
<clipPath id="clip0_24_24">
<rect width="64" height="64" fill="white" transform="translate(19 19)"/>
</clipPath>
</defs>
</svg>
