<svg width="102" height="102" viewBox="0 0 102 102" fill="none" xmlns="http://www.w3.org/2000/svg">
<circle cx="51" cy="51" r="51" fill="white"/>
<path d="M51 86C70.33 86 86 70.33 86 51C86 31.67 70.33 16 51 16C31.67 16 16 31.67 16 51C16 70.33 31.67 86 51 86Z" fill="#007AB9"/>
<path d="M72 53.6829V68H63.6392V54.6424C63.6392 51.2884 62.4321 48.998 59.4049 48.998C57.0947 48.998 55.7224 50.54 55.1163 52.0331C54.8962 52.5667 54.8395 53.3077 54.8395 54.0561V67.9994H46.478C46.478 67.9994 46.5903 45.376 46.478 43.0341H54.8401V46.5719C54.8232 46.5998 54.7995 46.627 54.7846 46.6537H54.8401V46.5719C55.9512 44.8745 57.9327 42.4479 62.3753 42.4479C67.876 42.4479 72 46.016 72 53.6829ZM37.7313 31C34.8712 31 33 32.8639 33 35.3129C33 37.7098 34.8169 39.6276 37.6215 39.6276H37.6758C40.592 39.6276 42.4052 37.7098 42.4052 35.3129C42.3497 32.8639 40.592 31 37.7313 31ZM33.4969 68H41.8552V43.0341H33.4969V68Z" fill="#F1F2F2"/>
</svg>
