<svg width="102" height="102" viewBox="0 0 102 102" fill="none" xmlns="http://www.w3.org/2000/svg">
<circle cx="51" cy="51" r="51" fill="white"/>
<path d="M51 86C70.33 86 86 70.33 86 51C86 31.67 70.33 16 51 16C31.67 16 16 31.67 16 51C16 70.33 31.67 86 51 86Z" fill="#1DA1F2"/>
<path d="M69.9275 39.5702C68.5652 40.1701 67.1087 40.5748 65.5725 40.7627C67.1377 39.8232 68.3406 38.3416 68.9058 36.5782C67.442 37.431 65.8116 38.0525 64.087 38.3994C62.7029 36.9251 60.7391 36 58.5507 36C54.3623 36 50.9638 39.3895 50.9638 43.5596C50.9638 44.1595 51.0362 44.7377 51.1594 45.2869C44.8551 44.9906 39.2609 41.9696 35.5217 37.4021C34.8623 38.5151 34.4928 39.8015 34.4928 41.2108C34.4928 43.8415 35.8333 46.1542 37.8696 47.5129C36.6232 47.4695 35.4565 47.1298 34.4348 46.5661V46.6601C34.4348 50.3315 37.0435 53.3886 40.5217 54.0824C39.8841 54.2558 39.2101 54.3426 38.5217 54.3426C38.0362 54.3426 37.5725 54.2992 37.1087 54.2125C38.0797 57.219 40.8768 59.4088 44.2101 59.4666C41.6232 61.4975 38.3333 62.7044 34.8043 62.7044C34.2029 62.7044 33.6014 62.6683 33 62.6032C36.3768 64.7497 40.3551 66 44.6522 66C58.6014 66 66.2319 54.4727 66.2319 44.4919C66.2319 44.1739 66.2319 43.8487 66.2101 43.5235C67.6884 42.4611 68.9855 41.1241 70 39.6064L69.9275 39.5702Z" fill="white"/>
</svg>
