<svg width="120" height="120" viewBox="0 0 120 120" fill="none" xmlns="http://www.w3.org/2000/svg">
<rect width="120" height="120" rx="15" fill="#F6F5FF"/>
<path d="M25 45.0667C25 39.0928 25 36.1058 26.1444 33.8241C27.1511 31.817 28.7574 30.1852 30.7331 29.1626C32.9792 28 35.9194 28 41.8 28H78.2C84.0806 28 87.0208 28 89.2669 29.1626C91.2426 30.1852 92.8489 31.817 93.8556 33.8241C95 36.1058 95 39.0928 95 45.0667V60.7111C95 66.685 95 69.672 93.8556 71.9537C92.8489 73.9607 91.2426 75.5925 89.2669 76.6152C87.0208 77.7778 84.0806 77.7778 78.2 77.7778H60H41.8C35.9194 77.7778 32.9792 77.7778 30.7331 76.6152C28.7574 75.5925 27.1511 73.9607 26.1444 71.9537C25 69.672 25 66.685 25 60.7111V45.0667Z" fill="#443EE0"/>
<path d="M46 92H74M60 77.7778V92M60 77.7778H78.2C84.0806 77.7778 87.0208 77.7778 89.2669 76.6152C91.2426 75.5925 92.8489 73.9607 93.8556 71.9537C95 69.672 95 66.685 95 60.7111V45.0667C95 39.0928 95 36.1058 93.8556 33.8241C92.8489 31.817 91.2426 30.1852 89.2669 29.1626C87.0208 28 84.0806 28 78.2 28H41.8C35.9194 28 32.9792 28 30.7331 29.1626C28.7574 30.1852 27.1511 31.817 26.1444 33.8241C25 36.1058 25 39.0928 25 45.0667V60.7111C25 66.685 25 69.672 26.1444 71.9537C27.1511 73.9607 28.7574 75.5925 30.7331 76.6152C32.9792 77.7778 35.9194 77.7778 41.8 77.7778H60Z" stroke="#443EE0" stroke-width="2" stroke-linecap="round" stroke-linejoin="round"/>
</svg>
