<svg width="120" height="120" viewBox="0 0 120 120" fill="none" xmlns="http://www.w3.org/2000/svg">
<rect width="120" height="120" rx="15" fill="#EFF5FF"/>
<path d="M98.123 47.2083H88.7683L86.1683 40.8167C83.4964 34.2452 77.1198 30 69.9214 30H50.0776C42.8807 30 36.5026 34.2452 33.8291 40.8167L31.2291 47.2083H21.876C20.6557 47.2083 19.7604 48.3361 20.0572 49.4992L20.9947 53.1867C21.2026 54.0072 21.9526 54.5833 22.8135 54.5833H25.9494C23.851 56.3856 22.4994 59.0053 22.4994 61.9583V69.3333C22.4994 71.8101 23.4619 74.0456 24.9994 75.7757V84.0833C24.9994 86.7983 27.2385 89 29.9994 89H34.9995C37.7604 89 39.9995 86.7983 39.9995 84.0833V79.1667H79.9995V84.0833C79.9995 86.7983 82.2386 89 84.9995 89H89.9995C92.7605 89 94.9995 86.7983 94.9995 84.0833V75.7757C96.537 74.0472 97.4995 71.8116 97.4995 69.3333V61.9583C97.4995 59.0053 96.148 56.3856 94.0511 54.5833H97.187C98.048 54.5833 98.798 54.0072 99.0058 53.1867L99.9433 49.4992C100.239 48.3361 99.3433 47.2083 98.123 47.2083ZM43.1135 44.4688C44.2526 41.6694 47.0104 39.8333 50.0776 39.8333H69.9214C72.9886 39.8333 75.7464 41.6694 76.8854 44.4688L79.9995 52.125H39.9995L43.1135 44.4688ZM34.9995 69.3026C31.9994 69.3026 29.9994 67.3421 29.9994 64.4013C29.9994 61.4605 31.9994 59.5 34.9995 59.5C37.9995 59.5 42.4995 63.9112 42.4995 66.852C42.4995 69.7927 37.9995 69.3026 34.9995 69.3026ZM84.9995 69.3026C81.9995 69.3026 77.4995 69.7927 77.4995 66.852C77.4995 63.9112 81.9995 59.5 84.9995 59.5C87.9995 59.5 89.9995 61.4605 89.9995 64.4013C89.9995 67.3421 87.9995 69.3026 84.9995 69.3026Z" fill="#558EEE"/>
</svg>
