<svg width="120" height="120" viewBox="0 0 120 120" fill="none" xmlns="http://www.w3.org/2000/svg">
<path d="M105 0H15C6.71573 0 0 6.71573 0 15V105C0 113.284 6.71573 120 15 120H105C113.284 120 120 113.284 120 105V15C120 6.71573 113.284 0 105 0Z" fill="#F6F7FF"/>
<path d="M80.5556 47.6667C68.0413 60.5001 61.178 67.5293 58.2145 70.0077C57.4004 70.8218 56.9934 71.2288 56.5241 71.3813C56.1112 71.5154 55.6665 71.5154 55.2537 71.3813C54.7843 71.2288 54.3773 70.8218 53.5633 70.0077L49.7222 66.1666L45.8812 62.3256C45.0671 61.5116 44.6601 61.1045 44.1908 60.952C43.7779 60.8179 43.3332 60.8179 42.9204 60.952C42.451 61.1045 42.044 61.5116 41.23 62.3256L23 80.5556M80.5556 47.6667H64.1111ZM80.5556 47.6667V64.1111ZM42.7333 97H77.2667C84.174 97 87.6276 97 90.2659 95.6557C92.5865 94.4733 94.4733 92.5865 95.6557 90.2659C97 87.6276 97 84.174 97 77.2667V42.7333C97 35.826 97 32.3724 95.6557 29.7341C94.4733 27.4135 92.5865 25.5267 90.2659 24.3443C87.6276 23 84.174 23 77.2667 23H42.7333C35.826 23 32.3724 23 29.7341 24.3443C27.4135 25.5267 25.5267 27.4135 24.3443 29.7341C23 32.3724 23 35.826 23 42.7333V77.2667C23 84.174 23 87.6276 24.3443 90.2659C25.5267 92.5865 27.4135 94.4733 29.7341 95.6557C32.3724 97 35.826 97 42.7333 97Z" fill="#6A38C2"/>
<path d="M80.5556 47.6667C68.0413 60.5001 61.178 67.5293 58.2145 70.0077C57.4004 70.8218 56.9934 71.2288 56.5241 71.3813C56.1112 71.5154 55.6665 71.5154 55.2537 71.3813C54.7843 71.2288 54.3773 70.8218 53.5633 70.0077L49.7222 66.1666L45.8812 62.3256C45.0671 61.5116 44.6601 61.1045 44.1908 60.952C43.7779 60.8179 43.3332 60.8179 42.9204 60.952C42.451 61.1045 42.044 61.5116 41.23 62.3256L23 80.5556M80.5556 47.6667H64.1111M80.5556 47.6667V64.1111M42.7333 97H77.2667C84.174 97 87.6276 97 90.2659 95.6557C92.5865 94.4733 94.4733 92.5865 95.6557 90.2659C97 87.6276 97 84.174 97 77.2667V42.7333C97 35.826 97 32.3724 95.6557 29.7341C94.4733 27.4135 92.5865 25.5267 90.2659 24.3443C87.6276 23 84.174 23 77.2667 23H42.7333C35.826 23 32.3724 23 29.7341 24.3443C27.4135 25.5267 25.5267 27.4135 24.3443 29.7341C23 32.3724 23 35.826 23 42.7333V77.2667C23 84.174 23 87.6276 24.3443 90.2659C25.5267 92.5865 27.4135 94.4733 29.7341 95.6557C32.3724 97 35.826 97 42.7333 97Z" stroke="#F6F7FF" stroke-width="2" stroke-linecap="round" stroke-linejoin="round"/>
</svg>
