<svg width="120" height="120" viewBox="0 0 120 120" fill="none" xmlns="http://www.w3.org/2000/svg">
<rect width="120" height="120" rx="15" fill="#F0FFFE"/>
<path d="M64 56H83.2C87.6804 56 89.9206 56 91.6319 56.8719C93.1372 57.6389 94.3611 58.8628 95.1281 60.3681C96 62.0794 96 64.3196 96 68.8V96H64H24V36.8C24 32.3196 24 30.0794 24.8719 28.3681C25.6389 26.8628 26.8628 25.6389 28.3681 24.8719C30.0794 24 32.3196 24 36.8 24H51.2C55.6804 24 57.9206 24 59.6319 24.8719C61.1372 25.6389 62.3611 26.8628 63.1281 28.3681C64 30.0794 64 32.3196 64 36.8V56Z" fill="#3BC2BA"/>
<path d="M64 56H83.2C87.6804 56 89.9206 56 91.6319 56.8719C93.1372 57.6389 94.3611 58.8628 95.1281 60.3681C96 62.0794 96 64.3196 96 68.8V96M64 56V36.8C64 32.3196 64 30.0794 63.1281 28.3681C62.3611 26.8628 61.1372 25.6389 59.6319 24.8719C57.9206 24 55.6804 24 51.2 24H36.8C32.3196 24 30.0794 24 28.3681 24.8719C26.8628 25.6389 25.6389 26.8628 24.8719 28.3681C24 30.0794 24 32.3196 24 36.8V96M64 56V76V96M96 96H100M96 96H64M64 96H24M24 96H20M38 42H50M38 56H50M38 72H50" stroke="#F0FFFE" stroke-opacity="0.941176" stroke-width="2" stroke-linecap="round" stroke-linejoin="round"/>
</svg>
