<svg width="120" height="120" viewBox="0 0 120 120" fill="none" xmlns="http://www.w3.org/2000/svg">
<path d="M105 0H15C6.71573 0 0 6.71573 0 15V105C0 113.284 6.71573 120 15 120H105C113.284 120 120 113.284 120 105V15C120 6.71573 113.284 0 105 0Z" fill="#FFF2F2"/>
<path d="M53.525 36.5294H40.76C34.5434 36.5294 31.4351 36.5294 29.0607 37.7207C26.9721 38.7686 25.274 40.4406 24.2098 42.4972C23 44.8352 23 47.8959 23 54.0171V58.389C23 61.7841 23 63.4817 23.5633 64.8207C24.3144 66.6061 25.7549 68.0246 27.5681 68.7641C28.9281 69.3188 30.652 69.3188 34.1 69.3188V84.8027C34.1 85.6485 34.1 86.0714 34.1356 86.4277C34.4817 89.8872 37.2613 92.6242 40.7747 92.9649C41.1365 93 41.566 93 42.425 93C43.284 93 43.7135 93 44.0753 92.9649C47.5887 92.6242 50.3683 89.8872 50.7144 86.4277C50.75 86.0714 50.75 85.6485 50.75 84.8027V69.3188H53.525C60.0608 69.3188 68.0558 72.7686 74.2239 76.0794C77.8223 78.0109 79.6214 78.9766 80.7998 78.8345C81.8925 78.7027 82.7188 78.2196 83.3593 77.338C84.05 76.3873 84.05 74.485 84.05 70.6803V35.1679C84.05 31.3633 84.05 29.461 83.3593 28.5102C82.7188 27.6286 81.8925 27.1455 80.7998 27.0137C79.6214 26.8716 77.8223 27.8373 74.2239 29.7688C68.0558 33.0797 60.0608 36.5294 53.525 36.5294Z" fill="#FF0101" stroke="#FFF2F2" stroke-width="2" stroke-linecap="round" stroke-linejoin="round"/>
<line x1="96.5" y1="38" x2="96.5" y2="68" stroke="#FF0101"/>
</svg>
