<svg width="120" height="120" viewBox="0 0 120 120" fill="none" xmlns="http://www.w3.org/2000/svg">
<rect width="120" height="120" rx="15" fill="#F2FFF6"/>
<g clip-path="url(#clip0_20_78)">
<path d="M101 72H99V58.4875C99 56.9 98.3625 55.375 97.2375 54.25L84.75 41.7625C83.625 40.6375 82.1 40 80.5125 40H75V34C75 30.6875 72.3125 28 69 28H29C25.6875 28 23 30.6875 23 34V74C23 77.3125 25.6875 80 29 80H31C31 86.625 36.375 92 43 92C49.625 92 55 86.625 55 80H71C71 86.625 76.375 92 83 92C89.625 92 95 86.625 95 80H101C102.1 80 103 79.1 103 78V74C103 72.9 102.1 72 101 72ZM43 86C39.6875 86 37 83.3125 37 80C37 76.6875 39.6875 74 43 74C46.3125 74 49 76.6875 49 80C49 83.3125 46.3125 86 43 86ZM83 86C79.6875 86 77 83.3125 77 80C77 76.6875 79.6875 74 83 74C86.3125 74 89 76.6875 89 80C89 83.3125 86.3125 86 83 86ZM93 60H75V46H80.5125L93 58.4875V60Z" fill="#34A853"/>
</g>
<defs>
<clipPath id="clip0_20_78">
<rect width="80" height="64" fill="white" transform="translate(23 28)"/>
</clipPath>
</defs>
</svg>
