<svg width="120" height="120" viewBox="0 0 120 120" fill="none" xmlns="http://www.w3.org/2000/svg">
<g clip-path="url(#clip0_21_99)">
<path d="M105 0H15C6.71573 0 0 6.71573 0 15V105C0 113.284 6.71573 120 15 120H105C113.284 120 120 113.284 120 105V15C120 6.71573 113.284 0 105 0Z" fill="#FFF8E3"/>
<path d="M75.1111 45.6292V32.3396C75.1111 29.1808 75.1111 27.6015 74.4492 26.6309C73.8709 25.7829 72.9753 25.2068 71.9671 25.0343C70.8131 24.8369 69.3866 25.4988 66.5337 26.8225L33.0229 42.3707C30.4786 43.5513 29.2064 44.1415 28.2746 45.057C27.4509 45.8663 26.8221 46.8542 26.4364 47.9452C26 49.1793 26 50.5879 26 53.405V72.2135M77 70.3146H77.0378ZM26 57.782V82.8472C26 87.1011 26 89.228 26.8235 90.8528C27.5479 92.282 28.7037 93.4439 30.1254 94.1721C31.7416 95 33.8574 95 38.0889 95H81.9111C86.1426 95 88.2584 95 89.8746 94.1721C91.2963 93.4439 92.4521 92.282 93.1765 90.8528C94 89.228 94 87.1011 94 82.8472V57.782C94 53.5282 94 51.4012 93.1765 49.7764C92.4521 48.3473 91.2963 47.1853 89.8746 46.4571C88.2584 45.6292 86.1426 45.6292 81.9111 45.6292H38.0889C33.8574 45.6292 31.7416 45.6292 30.1254 46.4571C28.7037 47.1853 27.5479 48.3473 26.8235 49.7764C26 51.4012 26 53.5282 26 57.782ZM78.8889 70.3146C78.8889 71.3633 78.0432 72.2135 77 72.2135C75.9568 72.2135 75.1111 71.3633 75.1111 70.3146C75.1111 69.2659 75.9568 68.4157 77 68.4157C78.0432 68.4157 78.8889 69.2659 78.8889 70.3146Z" fill="#FBBC09"/>
<path d="M75.1111 45.6292V32.3396C75.1111 29.1808 75.1111 27.6015 74.4492 26.6309C73.8709 25.7829 72.9753 25.2068 71.9671 25.0343C70.8131 24.8369 69.3866 25.4988 66.5337 26.8225L33.0229 42.3707C30.4786 43.5513 29.2064 44.1415 28.2746 45.057C27.4509 45.8663 26.8221 46.8542 26.4364 47.9452C26 49.1793 26 50.5879 26 53.405V72.2135M77 70.3146H77.0378M26 57.782V82.8472C26 87.1011 26 89.228 26.8235 90.8528C27.5479 92.282 28.7037 93.4439 30.1254 94.1721C31.7416 95 33.8574 95 38.0889 95H81.9111C86.1426 95 88.2584 95 89.8746 94.1721C91.2963 93.4439 92.4521 92.282 93.1765 90.8528C94 89.228 94 87.1011 94 82.8472V57.782C94 53.5282 94 51.4012 93.1765 49.7764C92.4521 48.3473 91.2963 47.1853 89.8746 46.4571C88.2584 45.6292 86.1426 45.6292 81.9111 45.6292H38.0889C33.8574 45.6292 31.7416 45.6292 30.1254 46.4571C28.7037 47.1853 27.5479 48.3473 26.8235 49.7764C26 51.4012 26 53.5282 26 57.782ZM78.8889 70.3146C78.8889 71.3633 78.0432 72.2135 77 72.2135C75.9568 72.2135 75.1111 71.3633 75.1111 70.3146C75.1111 69.2659 75.9568 68.4157 77 68.4157C78.0432 68.4157 78.8889 69.2659 78.8889 70.3146Z" stroke="#FFF8E3" stroke-width="2" stroke-linecap="round" stroke-linejoin="round"/>
</g>
<defs>
<clipPath id="clip0_21_99">
<rect width="120" height="120" fill="white"/>
</clipPath>
</defs>
</svg>
