<svg width="20" height="20" viewBox="0 0 20 20" fill="none" xmlns="http://www.w3.org/2000/svg">
<path d="M10 20C15.5228 20 20 15.5228 20 10C20 4.47715 15.5228 0 10 0C4.47715 0 0 4.47715 0 10C0 15.5228 4.47715 20 10 20Z" fill="#FFF8E3"/>
<path d="M14.7592 7.11537C14.3142 6.62327 13.5708 6.37723 12.4924 6.37723H12.3668V6.35628C12.3668 5.47679 12.3668 4.38791 10.3984 4.38791H9.60267C7.6343 4.38791 7.6343 5.48204 7.6343 6.35628V6.38246H7.50866C6.425 6.38246 5.68686 6.62851 5.24187 7.1206C4.7236 7.69646 4.73931 8.47124 4.79167 8.99996L4.7969 9.03661L4.83745 9.46237C4.84491 9.54079 4.88714 9.61163 4.95305 9.65477C5.07859 9.7369 5.28869 9.87233 5.41463 9.94227C5.48792 9.98938 5.56645 10.0313 5.64498 10.0732C6.54017 10.5652 7.52436 10.895 8.52424 11.0573C8.57136 11.5494 8.786 12.1253 9.93248 12.1253C11.0789 12.1253 11.3041 11.5547 11.3407 11.0469C12.4086 10.8741 13.44 10.5024 14.3718 9.95797C14.4032 9.94227 14.4241 9.92656 14.4503 9.91086C14.6579 9.79349 14.8735 9.64884 15.0699 9.50719C15.129 9.46447 15.1669 9.39851 15.175 9.326L15.1832 9.25124L15.2094 9.0052C15.2146 8.97379 15.2146 8.94761 15.2199 8.91097C15.2618 8.38224 15.2513 7.65981 14.7592 7.11537ZM10.5711 10.7014C10.5711 11.2563 10.5711 11.34 9.92723 11.34C9.28332 11.34 9.28332 11.2406 9.28332 10.7066V10.047H10.5711V10.7014ZM8.3829 6.37723V6.35628C8.3829 5.46633 8.3829 5.13652 9.60267 5.13652H10.3984C11.6182 5.13652 11.6182 5.47156 11.6182 6.35628V6.38246H8.3829V6.37723Z" fill="#FBBC09"/>
<path d="M14.6453 10.6518C14.8304 10.5637 15.0436 10.7104 15.025 10.9146L14.8371 12.9845C14.7272 14.0314 14.2978 15.0993 11.9944 15.0993H8.00536C5.70195 15.0993 5.27268 14.0314 5.16274 12.9897L4.98437 11.0277C4.96603 10.8259 5.17436 10.6793 5.35896 10.7628C5.95546 11.0327 7.05646 11.5115 7.73658 11.6897C7.8226 11.7122 7.89217 11.7737 7.92983 11.8543C8.24759 12.5339 8.93674 12.8955 9.93185 12.8955C10.9172 12.8955 11.615 12.5199 11.9338 11.8387C11.9715 11.7581 12.0412 11.6965 12.1273 11.6739C12.8495 11.4839 14.0214 10.9486 14.6453 10.6518Z" fill="#FBBC09"/>
</svg>
