<svg width="20" height="20" viewBox="0 0 20 20" fill="none" xmlns="http://www.w3.org/2000/svg">
<path d="M10 20C15.5228 20 20 15.5228 20 10C20 4.47715 15.5228 0 10 0C4.47715 0 0 4.47715 0 10C0 15.5228 4.47715 20 10 20Z" fill="#FFF9F6"/>
<path d="M10.0641 9.10256C11.8696 9.10256 13.3333 7.63888 13.3333 5.83333C13.3333 4.02779 11.8696 2.5641 10.0641 2.5641C8.25856 2.5641 6.79487 4.02779 6.79487 5.83333C6.79487 7.63888 8.25856 9.10256 10.0641 9.10256Z" fill="#FA4E09"/>
<path d="M10.0641 16.2821C12.9317 16.2821 15.2564 14.8758 15.2564 13.141C15.2564 11.4063 12.9317 10 10.0641 10C7.19647 10 4.8718 11.4063 4.8718 13.141C4.8718 14.8758 7.19647 16.2821 10.0641 16.2821Z" fill="#FA4E09"/>
</svg>
