<svg width="20" height="20" viewBox="0 0 20 20" fill="none" xmlns="http://www.w3.org/2000/svg">
<path d="M10 20C15.5228 20 20 15.5228 20 10C20 4.47715 15.5228 0 10 0C4.47715 0 0 4.47715 0 10C0 15.5228 4.47715 20 10 20Z" fill="#EFFFFE"/>
<path opacity="0.4" d="M14.6314 9.01378H13.0568C11.7654 9.01378 10.7138 7.96218 10.7138 6.67083V5.09615C10.7138 4.79647 10.4686 4.55128 10.1689 4.55128H7.85865C6.18045 4.55128 4.82372 5.64102 4.82372 7.58622V12.4138C4.82372 14.359 6.18045 15.4487 7.85865 15.4487H12.1413C13.8196 15.4487 15.1763 14.359 15.1763 12.4138V9.55865C15.1763 9.25897 14.9312 9.01378 14.6314 9.01378Z" fill="#3AC2BA"/>
<path d="M12.0703 4.66571C11.8469 4.44231 11.4601 4.59487 11.4601 4.90545V6.80705C11.4601 7.60256 12.1357 8.26186 12.9585 8.26186C13.4762 8.26731 14.1954 8.26731 14.811 8.26731C15.1217 8.26731 15.2851 7.90224 15.0672 7.6843C14.2826 6.89423 12.8768 5.47212 12.0703 4.66571Z" fill="#3AC2BA"/>
<path d="M10.8173 10.9535H7.54808C7.32468 10.9535 7.13942 10.7683 7.13942 10.5449C7.13942 10.3215 7.32468 10.1362 7.54808 10.1362H10.8173C11.0407 10.1362 11.226 10.3215 11.226 10.5449C11.226 10.7683 11.0407 10.9535 10.8173 10.9535Z" fill="#3AC2BA"/>
<path d="M9.72756 13.1331H7.54808C7.32468 13.1331 7.13942 12.9477 7.13942 12.7244C7.13942 12.501 7.32468 12.3157 7.54808 12.3157H9.72756C9.95096 12.3157 10.1362 12.501 10.1362 12.7244C10.1362 12.9477 9.95096 13.1331 9.72756 13.1331Z" fill="#3AC2BA"/>
</svg>
