<svg width="124" height="26" viewBox="0 0 124 26" fill="none" xmlns="http://www.w3.org/2000/svg">
<path d="M13.92 17.704C13.92 18.792 13.8027 19.8053 13.568 20.744C13.3333 21.6827 12.9173 22.504 12.32 23.208C11.744 23.912 10.9547 24.4667 9.952 24.872C8.97067 25.2773 7.72267 25.48 6.208 25.48C4.8 25.48 3.57333 25.288 2.528 24.904C1.504 24.4987 0.714667 24.072 0.16 23.624L1.6 20.456C2.13333 20.8187 2.784 21.1707 3.552 21.512C4.34133 21.832 5.14133 21.992 5.952 21.992C7.31733 21.992 8.30933 21.6507 8.928 20.968C9.54667 20.2853 9.856 19.112 9.856 17.448V2.824H13.92V17.704ZM34.0063 16.616C34.0063 17.9387 33.8143 19.144 33.4303 20.232C33.0463 21.32 32.5023 22.248 31.7983 23.016C31.0943 23.784 30.2409 24.3813 29.2383 24.808C28.2569 25.2347 27.1689 25.448 25.9743 25.448C24.7796 25.448 23.6916 25.2347 22.7103 24.808C21.7289 24.3813 20.8863 23.784 20.1823 23.016C19.4783 22.248 18.9236 21.32 18.5182 20.232C18.1343 19.144 17.9423 17.9387 17.9423 16.616C17.9423 15.2933 18.1343 14.0987 18.5182 13.032C18.9236 11.944 19.4783 11.016 20.1823 10.248C20.9076 9.48 21.7609 8.89333 22.7423 8.488C23.7236 8.06133 24.8009 7.848 25.9743 7.848C27.1476 7.848 28.2249 8.06133 29.2063 8.488C30.2089 8.89333 31.0623 9.48 31.7663 10.248C32.4703 11.016 33.0143 11.944 33.3983 13.032C33.8036 14.0987 34.0063 15.2933 34.0063 16.616ZM30.0383 16.616C30.0383 14.952 29.6756 13.64 28.9503 12.68C28.2463 11.6987 27.2543 11.208 25.9743 11.208C24.6943 11.208 23.6916 11.6987 22.9663 12.68C22.2623 13.64 21.9103 14.952 21.9103 16.616C21.9103 18.3013 22.2623 19.6347 22.9663 20.616C23.6916 21.5973 24.6943 22.088 25.9743 22.088C27.2543 22.088 28.2463 21.5973 28.9503 20.616C29.6756 19.6347 30.0383 18.3013 30.0383 16.616ZM49.0993 16.584C49.0993 14.9413 48.7686 13.64 48.1073 12.68C47.4673 11.72 46.4433 11.24 45.0353 11.24C44.3953 11.24 43.7873 11.336 43.2113 11.528C42.6566 11.72 42.2086 11.9333 41.8673 12.168V21.8C42.1446 21.864 42.4966 21.928 42.9233 21.992C43.3713 22.0347 43.9046 22.056 44.5233 22.056C45.9526 22.056 47.0726 21.576 47.8833 20.616C48.6939 19.6347 49.0993 18.2907 49.0993 16.584ZM53.0673 16.648C53.0673 17.992 52.8646 19.208 52.4593 20.296C52.0753 21.3627 51.5099 22.28 50.7633 23.048C50.0379 23.816 49.1526 24.4027 48.1073 24.808C47.0619 25.2133 45.8779 25.416 44.5553 25.416C43.2753 25.416 42.0486 25.32 40.8753 25.128C39.7233 24.936 38.7633 24.7227 37.9953 24.488V0.807999L41.8673 0.167999V8.84C42.3153 8.60533 42.8593 8.392 43.4993 8.2C44.1606 8.008 44.8859 7.912 45.6753 7.912C46.8486 7.912 47.8939 8.12533 48.8113 8.552C49.7499 8.95733 50.5286 9.544 51.1473 10.312C51.7659 11.08 52.2353 12.008 52.5553 13.096C52.8966 14.1627 53.0673 15.3467 53.0673 16.648Z" fill="#7E54C9"/>
<path d="M57.0578 25V0.807999L60.9298 0.167999V8.456C61.3564 8.30667 61.8471 8.17867 62.4018 8.072C62.9778 7.96533 63.5431 7.912 64.0978 7.912C65.4418 7.912 66.5511 8.104 67.4258 8.488C68.3218 8.85067 69.0364 9.37333 69.5698 10.056C70.1031 10.7173 70.4764 11.5173 70.6898 12.456C70.9244 13.3947 71.0417 14.44 71.0417 15.592V25H67.1698V16.2C67.1698 15.304 67.1058 14.5467 66.9778 13.928C66.8711 13.288 66.6791 12.776 66.4018 12.392C66.1458 11.9867 65.7938 11.6987 65.3458 11.528C64.8978 11.336 64.3431 11.24 63.6818 11.24C63.1698 11.24 62.6471 11.2933 62.1138 11.4C61.5804 11.5067 61.1858 11.6027 60.9298 11.688V25H57.0578ZM89.4108 24.488C88.6641 24.68 87.6934 24.872 86.4988 25.064C85.3041 25.2773 83.9921 25.384 82.5628 25.384C81.2188 25.384 80.0881 25.192 79.1708 24.808C78.2748 24.424 77.5494 23.8907 76.9948 23.208C76.4614 22.5253 76.0774 21.7147 75.8428 20.776C75.6081 19.816 75.4908 18.7707 75.4908 17.64V8.264H79.3628V17.032C79.3628 18.824 79.6188 20.104 80.1308 20.872C80.6641 21.64 81.5814 22.024 82.8828 22.024C83.3521 22.024 83.8428 22.0027 84.3548 21.96C84.8881 21.9173 85.2828 21.864 85.5388 21.8V8.264H89.4108V24.488ZM94.339 8.808C95.0857 8.59467 96.0563 8.392 97.251 8.2C98.4457 8.008 99.7683 7.912 101.219 7.912C102.584 7.912 103.726 8.104 104.643 8.488C105.56 8.85067 106.286 9.37333 106.819 10.056C107.374 10.7173 107.758 11.528 107.971 12.488C108.206 13.4267 108.323 14.4613 108.323 15.592V25H104.451V16.2C104.451 15.304 104.387 14.5467 104.259 13.928C104.152 13.288 103.96 12.776 103.683 12.392C103.427 11.9867 103.064 11.6987 102.595 11.528C102.147 11.336 101.592 11.24 100.931 11.24C100.44 11.24 99.9283 11.272 99.395 11.336C98.8617 11.4 98.467 11.4533 98.211 11.496V25H94.339V8.808ZM112.866 3.848L116.738 3.208V8.264H122.69V11.496H116.738V18.312C116.738 19.656 116.951 20.616 117.378 21.192C117.804 21.768 118.53 22.056 119.554 22.056C120.258 22.056 120.876 21.9813 121.41 21.832C121.964 21.6827 122.402 21.544 122.722 21.416L123.362 24.488C122.914 24.68 122.327 24.872 121.602 25.064C120.876 25.2773 120.023 25.384 119.042 25.384C117.847 25.384 116.844 25.224 116.034 24.904C115.244 24.584 114.615 24.1253 114.146 23.528C113.676 22.9093 113.346 22.1733 113.154 21.32C112.962 20.4453 112.866 19.4533 112.866 18.344V3.848Z" fill="#FA6324"/>
</svg>
