<svg width="20" height="20" viewBox="0 0 20 20" fill="none" xmlns="http://www.w3.org/2000/svg">
<g clip-path="url(#clip0_4_87)">
<path d="M10 20C15.5228 20 20 15.5228 20 10C20 4.47715 15.5228 0 10 0C4.47715 0 0 4.47715 0 10C0 15.5228 4.47715 20 10 20Z" fill="#E9DDFF"/>
<path d="M9.42308 12.8205C11.5827 12.8205 13.3333 11.0698 13.3333 8.91026C13.3333 6.75068 11.5827 5 9.42308 5C7.2635 5 5.51282 6.75068 5.51282 8.91026C5.51282 11.0698 7.2635 12.8205 9.42308 12.8205Z" fill="#6A38C2"/>
<path d="M8.43419 7.72453L14.3317 13.7501" stroke="#6A38C2"/>
</g>
<defs>
<clipPath id="clip0_4_87">
<rect width="20" height="20" fill="white"/>
</clipPath>
</defs>
</svg>
