<svg width="1599" height="279" viewBox="0 0 1599 279" fill="none" xmlns="http://www.w3.org/2000/svg">
<path opacity="0.6" d="M1 158C56.6459 209.099 124 283 316 278C508 273 614.776 96.6527 775 106C947.159 116.044 1050.96 225.078 1182 243C1293.03 258.186 1507.44 154.209 1532 83" stroke="#6A38C2" stroke-dasharray="7 7"/>
<g clip-path="url(#clip0_11_16)">
<path d="M1582.33 23.3449L1526.92 44.7105C1523.14 46.2293 1523.16 48.3387 1526.23 49.2793L1540.45 53.7168L1573.36 32.9512C1574.92 32.0043 1576.34 32.5137 1575.17 33.5512L1548.51 57.6168H1548.5L1548.51 57.6199L1547.53 72.2824C1548.96 72.2824 1549.6 71.623 1550.41 70.8449L1557.31 64.1262L1571.69 74.7418C1574.34 76.2012 1576.24 75.4512 1576.9 72.2887L1586.33 27.8262C1587.3 23.9543 1584.86 22.2012 1582.33 23.3449Z" fill="#6A38C2"/>
</g>
<defs>
<clipPath id="clip0_11_16">
<rect width="75" height="75" fill="white" transform="translate(1524)"/>
</clipPath>
</defs>
</svg>
